<svg width="20" height="20" viewBox="0 0 20 20" fill="none" xmlns="http://www.w3.org/2000/svg">
<path d="M10 20C15.5228 20 20 15.5228 20 10C20 4.47715 15.5228 0 10 0C4.47715 0 0 4.47715 0 10C0 15.5228 4.47715 20 10 20Z" fill="#59AFD9"/>
<path d="M12.5344 9.05395L12.3686 10.4461C12.3615 10.5107 12.3306 10.5704 12.282 10.6137C12.2334 10.6569 12.1705 10.6807 12.1055 10.6803H10.6581V14.8118C10.6585 14.8612 10.6393 14.9086 10.6048 14.9439C10.5703 14.9791 10.5232 14.9993 10.4739 15H8.99891C8.97437 14.9997 8.95014 14.9945 8.9276 14.9848C8.90506 14.9751 8.88466 14.961 8.86755 14.9434C8.85045 14.9258 8.83697 14.905 8.82791 14.8822C8.81884 14.8594 8.81435 14.8351 8.81469 14.8105L8.82259 10.6803H7.72654C7.65674 10.6803 7.58981 10.6525 7.54046 10.6032C7.4911 10.5538 7.46338 10.4869 7.46338 10.4171V9.025C7.46338 8.95521 7.4911 8.88827 7.54046 8.83892C7.58981 8.78957 7.65674 8.76184 7.72654 8.76184H8.81601V7.41184C8.81601 5.85 9.74496 5 11.1055 5H12.22C12.2898 5 12.3567 5.02773 12.406 5.07708C12.4554 5.12643 12.4831 5.19336 12.4831 5.26316V6.43553C12.4831 6.50532 12.4554 6.57226 12.406 6.62161C12.3567 6.67096 12.2898 6.69868 12.22 6.69868H11.5371C10.7976 6.71053 10.6581 7.06447 10.6581 7.59342V8.75789H12.2779C12.3148 8.75853 12.3512 8.76694 12.3847 8.78258C12.4182 8.79822 12.448 8.82073 12.4722 8.84866C12.4964 8.87659 12.5145 8.90931 12.5252 8.94468C12.5359 8.98005 12.5391 9.01728 12.5344 9.05395Z" fill="white"/>
</svg>
