<svg width="225" height="61" viewBox="0 0 225 61" fill="none" xmlns="http://www.w3.org/2000/svg">
<path d="M101.226 38.4074C99.7206 38.4074 98.2512 38.4074 96.6957 38.4074C96.6593 37.5762 96.6249 36.7985 96.5875 35.9446C95.3126 36.6923 94.1748 37.499 92.9275 38.0636C89.9385 39.4164 86.8067 39.82 83.6965 38.5971C80.8743 37.4873 78.0929 34.8185 78.5136 29.3728C78.7604 26.1783 80.804 23.3676 84.4684 22.2708C86.8321 21.5633 89.3298 21.274 91.7843 20.9093C93.324 20.6806 94.8945 20.6598 96.4451 20.5462C97.1408 17.7691 95.4751 15.5023 92.5898 15.017C89.0986 14.43 85.7918 15.072 82.5189 16.1848C82.0794 16.3343 81.6357 16.4736 81.1901 16.6038C81.1211 16.6239 81.0299 16.5686 80.8325 16.5187C80.8325 15.2008 80.7969 13.8511 80.8634 12.5065C80.8763 12.2452 81.2504 11.8375 81.5204 11.7774C85.8769 10.8099 90.2558 10.2069 94.6997 11.2177C98.6696 12.1207 101.122 14.8308 101.195 18.8662C101.31 25.3486 101.226 31.8346 101.226 38.4074ZM96.6292 24.3417C94.0663 24.5831 91.6855 24.645 89.3754 25.0815C87.8032 25.3787 86.2026 25.9952 84.8435 26.8381C83.056 27.9464 83.0832 29.9027 83.413 31.7465C83.6932 33.3124 84.7852 34.2363 86.2879 34.6203C90.0327 35.5774 93.2537 34.3578 96.2032 32.129C96.4089 31.9736 96.6076 31.6551 96.6109 31.4098C96.6417 29.1344 96.6292 26.8587 96.6292 24.3417Z" fill="#3C2B24"/>
<path d="M73.1422 31.6389C73.1422 33.3821 73.161 34.8472 73.1218 36.3107C73.116 36.532 72.8875 36.8572 72.6807 36.9471C67.343 39.2656 61.8864 40.1286 56.3589 37.7424C51.7987 35.7736 49.697 32.0062 49.2523 27.1885C49.0053 24.5117 49.1609 21.8846 49.9911 19.3013C51.6892 14.0161 56.1331 10.7717 61.6916 10.6785C65.1234 10.6209 68.241 11.2219 70.6997 13.8829C72.257 15.5682 73.0541 17.5956 73.3938 19.777C73.677 21.5956 73.6569 23.4612 73.7799 25.4474C67.0509 25.4474 60.5433 25.4474 54.0677 25.4474C53.1981 29.1629 56.1063 33.5848 60.0503 34.6159C64.3844 35.7492 68.3049 34.5492 72.0201 32.3449C72.3222 32.1656 72.6158 31.9708 73.1422 31.6389ZM69.0551 21.8429C69.0487 17.6455 67.153 15.2115 63.9 14.6604C62.9506 14.4994 61.9597 14.5027 60.9925 14.5425C57.2508 14.6963 53.9149 18.1857 53.999 21.8431C58.9888 21.8429 63.9789 21.8429 69.0551 21.8429Z" fill="#3C2B24"/>
<path d="M12.8759 6.76569C8.55661 6.76569 4.41479 6.76569 0.195801 6.76569C0.195801 5.24969 0.195801 3.8712 0.195801 2.4046C10.2445 2.4046 20.2731 2.4046 30.3962 2.4046C30.3962 3.81467 30.3962 5.19264 30.3962 6.73793C26.219 6.73793 22.0048 6.73793 17.7074 6.73793C17.7074 17.3706 17.7074 27.8382 17.7074 38.3878C16.077 38.3878 14.5315 38.3878 12.8762 38.3878C12.8759 27.9195 12.8759 17.4597 12.8759 6.76569Z" fill="#3C2B24"/>
<path d="M34.7306 38.4037C33.1398 38.4037 31.6727 38.4037 30.123 38.4037C30.123 29.4549 30.123 20.4976 30.123 11.4701C31.6385 11.4701 33.1026 11.4701 34.6774 11.4701C34.6774 12.6515 34.6774 13.7799 34.6774 15.2399C35.2486 14.8194 35.6018 14.5773 35.9357 14.3106C38.8243 12.0041 42.0901 11.029 45.7771 11.4602C46.5633 11.5521 47.0059 11.7823 46.9465 12.6996C46.8706 13.8723 46.9282 15.0537 46.9282 16.2692C45.1547 16.1903 43.5201 16.0551 41.8854 16.0589C39.1979 16.0652 37.0746 17.486 35.052 19.0387C34.7808 19.247 34.7469 19.874 34.7454 20.3077C34.7256 25.8629 34.7314 31.4181 34.7309 36.973C34.7306 37.4286 34.7306 37.8839 34.7306 38.4037Z" fill="#3C2B24"/>
<path d="M189.007 11.4984C190.423 11.4984 191.808 11.4984 193.37 11.4984C193.37 12.0105 193.37 12.4602 193.37 12.91C193.372 17.8287 193.372 22.7475 193.38 27.6663C193.381 28.3012 193.396 28.9391 193.457 29.5707C193.923 34.4325 196.634 35.5025 201.283 34.5236C201.489 34.4803 201.703 34.4307 201.887 34.3344C203.271 33.6096 204.753 33.0153 206.002 32.1031C207.545 30.9759 206.676 29.1823 206.712 27.714C206.83 22.8405 206.757 17.9622 206.757 13.0859C206.757 12.5909 206.757 12.0958 206.757 11.519C208.305 11.519 209.682 11.519 211.148 11.519C211.148 20.4742 211.148 29.3902 211.148 38.3884C209.72 38.3884 208.338 38.3884 206.817 38.3884C206.764 37.5327 206.71 36.6755 206.651 35.7338C205.298 36.5454 204.097 37.4189 202.774 38.0296C199.215 39.6737 195.623 39.8669 192.268 37.5444C189.794 35.8313 188.975 33.1248 188.914 30.3174C188.78 24.1726 188.866 18.0231 188.866 11.8755C188.866 11.7986 188.922 11.7217 189.007 11.4984Z" fill="#5BAEDA"/>
<path d="M133.532 31.9223C135.482 32.8073 137.315 33.7561 139.233 34.4799C141.582 35.3661 144.043 35.4445 146.491 34.87C149.015 34.2772 150.155 32.4971 149.611 30.2145C149.249 28.6922 148.067 28.1416 146.777 27.8039C144.121 27.1082 141.386 26.6702 138.78 25.8282C133.961 24.2712 132.078 19.5297 134.528 15.2977C136.149 12.4985 138.908 11.3986 141.935 10.9542C145.448 10.4388 148.844 11.0398 152.162 12.2532C153.113 12.6011 153.488 13.1206 153.416 14.1288C153.336 15.2447 153.398 16.3709 153.398 17.5981C151.826 16.8631 150.494 16.1429 149.093 15.6061C146.51 14.617 143.845 14.2493 141.13 15.0497C138.743 15.7531 137.686 17.5589 138.395 19.6743C138.835 20.9864 139.947 21.5774 141.148 21.8871C143.481 22.4884 145.859 22.917 148.196 23.505C150.514 24.0881 152.618 25.0851 153.71 27.3939C155.714 31.6292 153.542 36.4148 148.8 38.1249C145.047 39.4784 141.214 39.3551 137.433 38.2616C133.433 37.1044 133.449 37.0415 133.471 32.9389C133.474 32.5776 133.514 32.2167 133.532 31.9223Z" fill="#5BAEDA"/>
<path d="M178.145 36.5799C173.036 40.4238 164.334 39.5842 159.722 33.144C155.659 27.4691 156.84 18.4123 162.384 14.7014C167.636 21.9919 172.891 29.2872 178.145 36.5799Z" fill="#5BAEDA"/>
<path d="M165.02 12.9892C170.474 9.95239 178.156 12.0258 181.901 17.3391C185.897 23.0094 184.776 30.6106 180.595 34.5629C175.418 27.3927 170.253 20.2382 165.02 12.9892Z" fill="#5BAEDA"/>
<path d="M224.607 38.4114C223.124 38.4114 221.737 38.4114 220.268 38.4114C220.268 25.9093 220.268 13.4611 220.268 0.88797C221.66 0.88797 223.072 0.88797 224.607 0.88797C224.607 13.3371 224.607 25.8143 224.607 38.4114Z" fill="#5BAEDA"/>
<path d="M116.986 21.8879C115.284 21.8879 113.847 21.8879 112.202 21.8879C112.202 20.7012 112.202 19.532 112.202 18.3631C112.202 17.1838 112.202 16.0044 112.202 14.6588C109.609 14.6588 107.133 14.6588 104.633 14.6588C104.633 13.2811 104.633 12.0737 104.633 10.7291C107.151 10.7291 109.589 10.7291 112.191 10.7291C112.191 8.12113 112.191 5.64556 112.191 3.11065C113.822 3.11065 115.286 3.11065 116.912 3.11065C116.912 5.23071 116.961 7.29984 116.891 9.36515C116.857 10.396 117.139 10.802 118.231 10.7487C120.009 10.6621 121.794 10.7477 123.575 10.6993C124.39 10.6772 124.737 10.9349 124.683 11.7842C124.626 12.6679 124.67 13.5582 124.67 14.5931C122.115 14.5931 119.64 14.5931 116.986 14.5931C116.986 17.074 116.986 19.4174 116.986 21.8879Z" fill="url(#paint0_linear_104_54)"/>
<path d="M116.961 25.0608C116.961 26.5544 116.954 27.8973 116.962 29.2399C116.992 33.784 119.774 34.6802 123.678 33.9218C124.455 33.7708 125.215 33.5312 126.198 33.2765C126.198 34.601 126.217 35.8068 126.177 37.0109C126.172 37.1838 125.913 37.4481 125.724 37.5006C123.121 38.2251 120.476 38.5488 117.819 37.9014C114.41 37.071 112.778 34.6535 112.425 31.3276C112.234 29.523 112.273 27.6907 112.286 25.8714C112.288 25.5997 112.707 25.1133 112.957 25.0975C114.213 25.0176 115.476 25.0608 116.961 25.0608Z" fill="#03A2E0"/>
<path d="M47.3768 60.5056C46.4039 60.872 45.9776 60.4944 45.6942 59.5898C45.1441 57.8337 44.4805 56.1132 43.6999 54.3888C43.6999 56.4165 43.6999 58.4443 43.6999 60.545C43.0554 60.545 42.5275 60.545 41.9097 60.545C41.9097 57.3648 41.9097 54.177 41.9097 51.0016C44.1871 50.5664 44.2521 50.6071 44.9567 52.6335C45.5042 54.2085 46.0668 55.7783 46.7134 57.6068C47.3444 55.8239 47.9044 54.2656 48.4474 52.7012C49.153 50.6687 49.1472 50.6667 51.5158 50.94C51.5158 54.1164 51.5158 57.308 51.5158 60.5603C51.009 60.5603 50.4704 60.5603 49.8263 60.5603C49.8263 58.5164 49.8263 56.4564 49.8263 54.3965C49.7538 54.3822 49.6809 54.3682 49.6081 54.354C48.8607 56.4157 48.1127 58.4774 47.3768 60.5056Z" fill="#3C2B23"/>
<path d="M11.6703 60.5783C11.0299 60.5783 10.4902 60.5783 9.86963 60.5783C9.86963 57.3968 9.86963 54.239 9.86963 50.9561C10.4118 50.9561 10.9629 50.9561 11.6617 50.9561C11.6617 52.1918 11.6617 53.4017 11.6617 54.6887C13.101 54.6887 14.3983 54.6887 15.8753 54.6887C15.8753 53.4885 15.8753 52.248 15.8753 50.9233C16.6159 50.9233 17.1779 50.9233 17.8118 50.9233C17.8118 54.1697 17.8118 57.3265 17.8118 60.5551C17.1919 60.5551 16.6243 60.5551 15.9148 60.5551C15.9148 59.2169 15.9148 57.9242 15.9148 56.4892C14.6056 56.4892 13.4303 56.4428 12.2652 56.5304C12.0462 56.547 11.7205 57.0866 11.6973 57.4034C11.624 58.4124 11.6703 59.4303 11.6703 60.5783Z" fill="#3C2B23"/>
<path d="M212.03 60.614C212.03 57.3266 212.03 54.1662 212.03 50.7751C213.628 50.8663 215.206 50.7769 216.704 51.0825C219.131 51.5778 220.502 53.6447 220.273 56.0443C220.006 58.8438 218.355 60.4813 215.612 60.6053C214.47 60.657 213.323 60.614 212.03 60.614ZM213.853 59.045C215.466 59.1087 217.027 59.1247 217.908 57.5708C218.639 56.2827 218.576 54.8823 217.74 53.6248C217.062 52.6064 215.366 52.2369 213.854 52.682C213.853 54.7736 213.853 56.8674 213.853 59.045Z" fill="#3C2B23"/>
<path d="M33.4994 56.5453C33.4994 58.1805 33.4994 59.3142 33.4994 60.5341C32.8999 60.5341 32.3745 60.5341 31.7539 60.5341C31.7539 57.3844 31.7539 54.195 31.7539 50.9715C33.3435 50.9715 34.9051 50.8511 36.4382 51.0082C37.7632 51.1439 38.6107 52.2076 38.7833 53.4838C38.9517 54.7293 38.2842 55.734 36.6067 56.6754C37.4662 57.91 38.3214 59.1383 39.3074 60.5542C38.0598 60.6306 37.0038 60.9326 36.3493 59.5521C35.9915 58.7975 35.4572 58.111 34.916 57.4662C34.6415 57.1389 34.176 56.9721 33.4994 56.5453ZM33.5169 55.2361C34.7021 55.2213 35.8883 55.573 36.6246 54.4688C36.8471 54.1349 36.8431 53.333 36.5958 53.0608C35.7496 52.1292 34.6168 52.4646 33.5169 52.5744C33.5169 53.4639 33.5169 54.2615 33.5169 55.2361Z" fill="#3C2B23"/>
<path d="M90.2607 50.9C91.0135 50.9 91.5503 50.9 92.3528 50.9C92.2343 53.4558 92.2662 55.9499 91.9552 58.4008C91.7357 60.1299 89.7333 61.0793 87.5012 60.8557C85.6381 60.6693 84.2191 59.3802 84.1613 57.6409C84.0882 55.4457 84.1437 53.2464 84.1437 50.9448C84.7407 50.9448 85.2563 50.9448 85.9368 50.9448C85.9368 52.8537 85.9095 54.7484 85.947 56.6416C85.9696 57.7855 86.2065 58.8406 87.588 59.1317C89.1254 59.4558 90.2088 58.6888 90.2485 57.1152C90.2994 55.0912 90.2607 53.0651 90.2607 50.9Z" fill="#3C2B23"/>
<path d="M76.7996 56.4774C76.7996 57.4245 76.7996 58.1739 76.7996 59.0576C78.3044 59.0576 79.7672 59.0576 81.2908 59.0576C81.2908 59.6296 81.2908 60.0679 81.2908 60.5563C79.1311 60.5563 77.0326 60.5563 74.8716 60.5563C74.8716 57.3318 74.8716 54.1732 74.8716 50.9181C76.9527 50.9181 78.9594 50.9181 81.0336 50.9181C81.0336 51.4295 81.0336 51.8731 81.0336 52.4639C79.6248 52.4639 78.2476 52.4639 76.8169 52.4639C76.8169 53.2702 76.8169 53.93 76.8169 54.7694C77.804 54.7694 78.7702 54.7062 79.7191 54.806C80.0226 54.8381 80.4293 55.2573 80.5271 55.5789C80.7125 56.1891 80.3743 56.5077 79.7007 56.4853C78.775 56.4542 77.8478 56.4774 76.7996 56.4774Z" fill="#3C2B23"/>
<path d="M29.2895 60.462C27.9135 60.9517 27.1057 60.5613 26.8539 59.1853C26.7186 58.4468 26.3175 58.1074 25.5362 58.1927C25.0353 58.2472 24.5184 58.2393 24.0167 58.1853C23.1977 58.0969 22.6868 58.4736 22.5794 59.2271C22.3731 60.6761 21.495 60.8246 20.1562 60.4984C20.8673 58.6202 21.5671 56.7587 22.2771 54.9006C22.7125 53.7613 23.1139 52.6044 23.6385 51.507C23.7893 51.1918 24.3113 50.8943 24.6719 50.8839C25.0419 50.8732 25.6435 51.1332 25.7644 51.4296C26.9837 54.4214 28.1254 57.4455 29.2895 60.462ZM25.8322 56.5114C25.4611 55.492 25.1344 54.594 24.7246 53.4682C24.3266 54.6157 24.0129 55.5202 23.6693 56.5114C24.4758 56.5114 25.0631 56.5114 25.8322 56.5114Z" fill="#3C2B23"/>
<path d="M127.523 60.482C126.124 60.9111 125.294 60.5793 125.071 59.169C124.953 58.4256 124.498 58.1131 123.734 58.1821C123.23 58.2277 122.715 58.2209 122.211 58.1722C121.458 58.0996 120.966 58.381 120.846 59.132C120.618 60.5553 119.767 60.8869 118.362 60.495C119.287 58.0788 120.212 55.6579 121.141 53.2386C121.367 52.6496 121.528 52.0147 121.866 51.4965C122.073 51.1779 122.545 50.9049 122.926 50.8642C123.249 50.8295 123.816 51.0727 123.924 51.3366C125.162 54.3668 126.332 57.424 127.523 60.482ZM121.879 56.4767C122.667 56.4767 123.284 56.4767 124.027 56.4767C123.669 55.4817 123.346 54.5853 122.94 53.4543C122.534 54.6095 122.218 55.5107 121.879 56.4767Z" fill="#3C2B23"/>
<path d="M53.9746 60.5033C55.1756 57.3718 56.3022 54.3785 57.4961 51.4119C57.6104 51.128 58.1475 50.8529 58.4814 50.8608C58.871 50.8702 59.4829 51.1022 59.6029 51.3979C60.8209 54.3986 61.958 57.4321 63.1211 60.4646C61.7772 60.8973 60.9213 60.6376 60.6847 59.1804C60.5698 58.4734 60.1443 58.0881 59.3561 58.1803C58.896 58.2341 58.4195 58.2328 57.9588 58.1801C57.112 58.0828 56.5352 58.3777 56.4133 59.2423C56.2067 60.7081 55.2841 60.7952 53.9746 60.5033ZM59.6602 56.5138C59.2899 55.486 58.9601 54.5702 58.5539 53.4423C58.1569 54.6005 57.8419 55.5194 57.5009 56.5138C58.2845 56.5138 58.8733 56.5138 59.6602 56.5138Z" fill="#3C2B23"/>
<path d="M144.659 52.5964C143.556 52.4818 142.553 52.26 141.569 52.3303C141.149 52.3603 140.424 53.0362 140.458 53.3533C140.509 53.8336 141.021 54.3877 141.484 54.6686C141.999 54.9811 142.693 54.9818 143.283 55.1899C144.778 55.7165 145.318 56.482 145.264 57.8982C145.216 59.1728 144.433 60.3226 143.139 60.5706C142.047 60.78 140.892 60.7115 139.767 60.6865C138.485 60.6582 138.08 59.9656 138.382 59.0867C139.701 59.0867 140.915 59.185 142.097 59.0343C142.52 58.9803 143.124 58.3523 143.17 57.9341C143.208 57.5807 142.624 57.0502 142.198 56.7851C141.753 56.508 141.17 56.451 140.646 56.303C139.047 55.8512 138.371 55.0654 138.392 53.679C138.414 52.2531 139.447 50.9251 140.865 50.7358C141.729 50.6207 142.631 50.7491 143.512 50.8117C144.697 50.8963 145.006 51.563 144.659 52.5964Z" fill="#3C2B23"/>
<path d="M1.90562 56.9121C1.90562 57.632 1.90562 58.2233 1.90562 58.8149C1.90562 59.3609 1.90562 59.9069 1.90562 60.5362C1.32066 60.5362 0.798098 60.5362 0.195312 60.5362C0.195312 57.3465 0.195312 54.1551 0.195312 50.9553C1.72074 50.9553 3.20211 50.8328 4.65343 50.9884C6.21985 51.1565 7.03401 52.3124 7.00116 53.9127C6.96983 55.4424 5.91706 56.5387 4.18179 56.7776C3.47867 56.8746 2.76103 56.8652 1.90562 56.9121ZM1.95681 55.2334C3.15678 55.2308 4.35242 55.5407 4.97455 54.3043C5.1383 53.9791 5.09297 53.3354 4.86913 53.0669C4.07662 52.1171 2.99583 52.4924 1.95681 52.553C1.95681 53.4657 1.95681 54.2906 1.95681 55.2334Z" fill="#3C2B23"/>
<path d="M159.009 56.9153C159.009 58.1702 159.009 59.3384 159.009 60.5597C158.367 60.5597 157.842 60.5597 157.246 60.5597C157.246 57.3551 157.246 54.2003 157.246 50.7524C158.907 50.8716 160.549 50.836 162.124 51.1464C163.647 51.4466 164.231 52.5689 164.108 54.2031C164.009 55.5139 162.849 56.5814 161.24 56.7867C160.573 56.8717 159.894 56.8674 159.009 56.9153ZM159.082 52.1648C159.082 53.4394 159.082 54.3037 159.082 55.2475C160.183 55.2192 161.32 55.5487 161.997 54.4366C162.194 54.1122 162.192 53.266 162.032 53.1911C161.147 52.7762 160.184 52.5259 159.082 52.1648Z" fill="#3C2B23"/>
<path d="M170.477 57.9947C171.261 55.8176 172.001 53.9881 172.568 52.1064C172.96 50.8033 173.712 50.6115 174.976 51.0004C174.287 52.8222 173.606 54.6202 172.927 56.4188C172.511 57.5218 172.068 58.6158 171.694 59.7328C171.477 60.3796 171.165 60.6536 170.428 60.6523C169.724 60.6513 169.498 60.3564 169.284 59.7804C168.201 56.8622 167.08 53.958 165.965 51.0284C167.299 50.5305 168.019 50.8784 168.42 52.1858C168.986 54.0311 169.702 55.8306 170.477 57.9947Z" fill="#3C2B23"/>
<path d="M72.0587 52.393C67.8662 52.4788 66.8562 53.1376 66.8364 55.7484C66.8158 58.4754 67.498 58.9172 72.1171 59.128C72.1171 59.5701 72.1171 60.0155 72.1171 60.4436C68.8518 61.5499 65.9519 60.4482 65.147 57.7936C64.0751 54.2592 66.0261 50.2678 70.5555 50.658C71.9933 50.7823 72.1087 50.8375 72.0587 52.393Z" fill="#3C2B23"/>
<path d="M116.46 59.0882C116.46 59.6024 116.46 60.0213 116.46 60.4298C113.196 61.5824 110.242 60.4642 109.546 57.63C108.53 53.4976 110.651 50.1957 115.357 50.6864C116.431 50.7985 116.521 50.9688 116.396 52.4838C114.838 52.2009 113.129 51.8248 112.048 53.3543C111.525 54.0938 111.178 55.1463 111.2 56.0463C111.26 58.5557 112.341 59.1305 116.46 59.0882Z" fill="#3C2B23"/>
<path d="M99.464 60.5806C98.7051 60.5806 98.1627 60.5806 97.4774 60.5806C97.4774 57.9003 97.4774 55.2561 97.4774 52.5004C96.4262 52.5004 95.5127 52.5004 94.6369 52.5004C94.1635 50.991 94.2648 50.8357 95.6533 50.8326C97.8828 50.828 100.112 50.8314 102.406 50.8314C102.406 51.4352 102.406 51.8734 102.406 52.4248C101.428 52.4248 100.514 52.4248 99.4643 52.4248C99.464 55.1723 99.464 57.8122 99.464 60.5806Z" fill="#3C2B23"/>
<path d="M181.195 52.4356C181.195 55.2379 181.195 57.8474 181.195 60.5427C180.573 60.5427 180.05 60.5427 179.396 60.5427C179.396 57.8881 179.396 55.2424 179.396 52.4572C178.324 52.4572 177.373 52.4572 176.372 52.4572C176.372 51.9038 176.372 51.4923 176.372 50.9527C178.941 50.9527 181.525 50.9527 184.174 50.9527C184.174 51.4452 184.174 51.8883 184.174 52.4356C183.216 52.4356 182.299 52.4356 181.195 52.4356Z" fill="#3C2B23"/>
<path d="M204.858 52.469C203.754 52.469 202.87 52.469 201.886 52.469C201.886 51.9373 201.886 51.4643 201.886 50.9125C204.457 50.9125 207.011 50.9125 209.626 50.9125C209.626 51.4409 209.626 51.8848 209.626 52.4282C208.663 52.4282 207.746 52.4282 206.696 52.4282C206.696 55.1666 206.696 57.8115 206.696 60.5382C206.043 60.5382 205.519 60.5382 204.858 60.5382C204.858 57.9114 204.858 55.2654 204.858 52.469Z" fill="#3C2B23"/>
<path d="M129.842 50.9233C130.479 50.9233 131.041 50.9233 131.736 50.9233C131.736 53.6576 131.736 56.3071 131.736 59.0857C133.242 59.0857 134.621 59.0857 136.044 59.0857C136.044 59.6297 136.044 60.0427 136.044 60.5398C134.013 60.5398 131.963 60.5398 129.841 60.5398C129.842 57.3329 129.842 54.1761 129.842 50.9233Z" fill="#3C2B23"/>
<path d="M195.732 50.9134C196.344 50.9134 196.835 50.9134 197.446 50.9134C197.446 53.6418 197.446 56.2883 197.446 59.0539C198.937 59.0539 200.315 59.0539 201.779 59.0539C201.779 59.6083 201.779 60.0427 201.779 60.5485C199.777 60.5485 197.805 60.5485 195.732 60.5485C195.732 57.3548 195.732 54.1705 195.732 50.9134Z" fill="#3C2B23"/>
<path d="M106.481 60.5583C105.877 60.5583 105.347 60.5583 104.771 60.5583C104.771 57.3373 104.771 54.1785 104.771 50.9283C105.351 50.9283 105.873 50.9283 106.481 50.9283C106.481 54.1161 106.481 57.2755 106.481 60.5583Z" fill="#3C2B23"/>
<path d="M222.715 60.518C222.715 59.8731 222.715 59.3317 222.715 58.6818C223.353 58.6818 223.953 58.6818 224.631 58.6818C224.631 59.2676 224.631 59.8742 224.631 60.518C223.974 60.518 223.34 60.518 222.715 60.518Z" fill="#3C2B23"/>
<defs>
<linearGradient id="paint0_linear_104_54" x1="104.633" y1="3.11065" x2="124.688" y2="3.11065" gradientUnits="userSpaceOnUse">
<stop stop-color="#3C2A23"/>
<stop offset="0.5" stop-color="#216A8D"/>
<stop offset="1" stop-color="#0389D4"/>
</linearGradient>
</defs>
</svg>
