<svg width="225" height="61" viewBox="0 0 225 61" fill="none" xmlns="http://www.w3.org/2000/svg">
<path d="M101.177 38.2311C99.6722 38.2311 98.2028 38.2311 96.6474 38.2311C96.6109 37.3999 96.5766 36.6221 96.5391 35.7683C95.2643 36.5159 94.1265 37.3227 92.8791 37.8873C89.8902 39.2401 86.7583 39.6437 83.6481 38.4208C80.826 37.311 78.0445 34.6421 78.4652 29.1965C78.712 26.002 80.7557 23.1913 84.42 22.0944C86.7838 21.387 89.2815 21.0977 91.7359 20.733C93.2756 20.5043 94.8461 20.4834 96.3968 20.3699C97.0925 17.5928 95.4268 15.326 92.5414 14.8406C89.0503 14.2536 85.7435 14.8956 82.4706 16.0085C82.031 16.158 81.5874 16.2973 81.1417 16.4274C81.0727 16.4476 80.9816 16.3923 80.7842 16.3424C80.7842 15.0245 80.7486 13.6748 80.815 12.3302C80.828 12.0689 81.2021 11.6612 81.472 11.6011C85.8285 10.6336 90.2075 10.0306 94.6513 11.0413C98.6212 11.9444 101.074 14.6545 101.146 18.6899C101.262 25.1723 101.177 31.6583 101.177 38.2311ZM96.5809 24.1653C94.018 24.4068 91.6371 24.4686 89.3271 24.9051C87.7548 25.2023 86.1543 25.8189 84.7951 26.6618C83.0077 27.7701 83.0349 29.7264 83.3647 31.5702C83.6448 33.1361 84.7368 34.06 86.2396 34.444C89.9844 35.401 93.2053 34.1815 96.1548 31.9527C96.3606 31.7973 96.5592 31.4787 96.5625 31.2335C96.5934 28.9581 96.5809 26.6824 96.5809 24.1653Z" fill="white"/>
<path d="M73.0939 31.4627C73.0939 33.2058 73.1127 34.6709 73.0735 36.1344C73.0676 36.3557 72.8392 36.6809 72.6324 36.7708C67.2947 39.0893 61.838 39.9523 56.3106 37.5662C51.7504 35.5974 49.6486 31.8299 49.204 27.0122C48.957 24.3354 49.1126 21.7083 49.9428 19.1251C51.6409 13.8398 56.0847 10.5954 61.6432 10.5022C65.075 10.4446 68.1926 11.0456 70.6514 13.7066C72.2086 15.392 73.0057 17.4193 73.3455 19.6008C73.6286 21.4193 73.6085 23.285 73.7315 25.2711C67.0026 25.2711 60.495 25.2711 54.0194 25.2711C53.1497 28.9866 56.058 33.4085 60.0019 34.4397C64.336 35.5729 68.2565 34.3729 71.9718 32.1686C72.2738 31.9893 72.5675 31.7945 73.0939 31.4627ZM69.0068 21.6666C69.0004 17.4692 67.1047 15.0352 63.8517 14.4841C62.9023 14.3231 61.9114 14.3265 60.9442 14.3662C57.2024 14.52 53.8666 18.0094 53.9506 21.6668C58.9405 21.6666 63.9306 21.6666 69.0068 21.6666Z" fill="white"/>
<path d="M188.959 11.322C190.374 11.322 191.76 11.322 193.321 11.322C193.321 11.8341 193.321 12.2839 193.321 12.7336C193.324 17.6524 193.323 22.5712 193.332 27.49C193.333 28.1249 193.348 28.7628 193.408 29.3944C193.875 34.2561 196.586 35.3262 201.235 34.3473C201.441 34.304 201.654 34.2543 201.839 34.1581C203.223 33.4333 204.705 32.8389 205.953 31.9267C207.496 30.7996 206.628 29.006 206.664 27.5376C206.782 22.6642 206.709 17.7859 206.709 12.9096C206.709 12.4145 206.709 11.9195 206.709 11.3426C208.257 11.3426 209.633 11.3426 211.1 11.3426C211.1 20.2978 211.1 29.2138 211.1 38.212C209.671 38.212 208.29 38.212 206.769 38.212C206.715 37.3564 206.662 36.4992 206.603 35.5574C205.25 36.3691 204.048 37.2425 202.726 37.8532C199.166 39.4973 195.575 39.6906 192.22 37.3681C189.745 35.655 188.927 32.9484 188.866 30.141C188.732 23.9963 188.817 17.8467 188.818 11.6992C188.818 11.6223 188.873 11.5454 188.959 11.322Z" fill="white"/>
<path d="M12.8276 6.58936C8.50827 6.58936 4.36645 6.58936 0.147461 6.58936C0.147461 5.07336 0.147461 3.69487 0.147461 2.22827C10.1962 2.22827 20.2248 2.22827 30.3478 2.22827C30.3478 3.63834 30.3478 5.01631 30.3478 6.5616C26.1706 6.5616 21.9565 6.5616 17.659 6.5616C17.659 17.1943 17.659 27.6619 17.659 38.2115C16.0287 38.2115 14.4832 38.2115 12.8278 38.2115C12.8276 27.7431 12.8276 17.2834 12.8276 6.58936Z" fill="white"/>
<path d="M133.483 31.7461C135.433 32.6311 137.267 33.5799 139.185 34.3037C141.534 35.1899 143.995 35.2683 146.442 34.6938C148.967 34.101 150.107 32.3209 149.563 30.0383C149.2 28.516 148.018 27.9654 146.729 27.6277C144.072 26.932 141.338 26.4939 138.732 25.652C133.913 24.095 132.029 19.3535 134.48 15.1215C136.101 12.3223 138.86 11.2224 141.887 10.778C145.399 10.2626 148.795 10.8636 152.113 12.077C153.064 12.4249 153.44 12.9444 153.368 13.9526C153.288 15.0685 153.349 16.1947 153.349 17.4219C151.778 16.6869 150.446 15.9667 149.044 15.4299C146.462 14.4408 143.797 14.0731 141.081 14.8735C138.695 15.5768 137.638 17.3826 138.347 19.4981C138.787 20.8101 139.898 21.4012 141.1 21.7109C143.433 22.3121 145.81 22.7407 148.147 23.3288C150.466 23.9119 152.57 24.9089 153.662 27.2177C155.666 31.453 153.493 36.2386 148.752 37.9486C144.999 39.3022 141.166 39.1789 137.385 38.0854C133.384 36.9282 133.401 36.8653 133.423 32.7627C133.425 32.4013 133.465 32.0405 133.483 31.7461Z" fill="white"/>
<path d="M178.097 36.4037C172.988 40.2475 164.285 39.4079 159.674 32.9678C155.611 27.2929 156.792 18.2361 162.335 14.5251C167.588 21.8156 172.843 29.1109 178.097 36.4037Z" fill="white"/>
<path d="M164.971 12.8128C170.426 9.77599 178.108 11.8494 181.852 17.1627C185.849 22.833 184.728 30.4342 180.546 34.3865C175.37 27.2163 170.205 20.0618 164.971 12.8128Z" fill="white"/>
<path d="M34.6823 38.2275C33.0914 38.2275 31.6243 38.2275 30.0747 38.2275C30.0747 29.2787 30.0747 20.3214 30.0747 11.2939C31.5902 11.2939 33.0543 11.2939 34.6291 11.2939C34.6291 12.4753 34.6291 13.6037 34.6291 15.0637C35.2003 14.6432 35.5535 14.401 35.8874 14.1344C38.776 11.8279 42.0418 10.8528 45.7288 11.284C46.5149 11.3759 46.9575 11.6061 46.8982 12.5234C46.8223 13.6961 46.8799 14.8775 46.8799 16.093C45.1064 16.0141 43.4717 15.8788 41.837 15.8827C39.1496 15.889 37.0262 17.3098 35.0037 18.8625C34.7325 19.0708 34.6986 19.6978 34.6971 20.1315C34.6772 25.6866 34.6831 31.2418 34.6826 36.7968C34.6823 37.2524 34.6823 37.7077 34.6823 38.2275Z" fill="white"/>
<path d="M224.559 38.2351C223.075 38.2351 221.689 38.2351 220.22 38.2351C220.22 25.733 220.22 13.2848 220.22 0.71167C221.612 0.71167 223.024 0.71167 224.559 0.71167C224.559 13.1608 224.559 25.638 224.559 38.2351Z" fill="white"/>
<path d="M116.938 21.7116C115.236 21.7116 113.799 21.7116 112.154 21.7116C112.154 20.5249 112.154 19.3557 112.154 18.1868C112.154 17.0075 112.154 15.8281 112.154 14.4825C109.561 14.4825 107.085 14.4825 104.585 14.4825C104.585 13.1048 104.585 11.8974 104.585 10.5528C107.102 10.5528 109.541 10.5528 112.143 10.5528C112.143 7.9448 112.143 5.46923 112.143 2.93433C113.774 2.93433 115.238 2.93433 116.864 2.93433C116.864 5.05439 116.913 7.12352 116.843 9.18883C116.808 10.2197 117.09 10.6256 118.182 10.5724C119.96 10.4858 121.746 10.5714 123.527 10.523C124.342 10.5008 124.689 10.7586 124.634 11.6079C124.577 12.4915 124.622 13.3818 124.622 14.4168C122.066 14.4168 119.592 14.4168 116.938 14.4168C116.938 16.8977 116.938 19.2411 116.938 21.7116Z" fill="white"/>
<path d="M116.913 24.8845C116.913 26.3781 116.905 27.7209 116.914 29.0635C116.943 33.6077 119.726 34.5039 123.629 33.7455C124.407 33.5945 125.166 33.3548 126.15 33.1002C126.15 34.4247 126.169 35.6305 126.129 36.8345C126.123 37.0074 125.864 37.2718 125.676 37.3242C123.073 38.0488 120.427 38.3724 117.771 37.7251C114.362 36.8946 112.73 34.4771 112.377 31.1512C112.186 29.3467 112.225 27.5144 112.238 25.6951C112.24 25.4234 112.659 24.937 112.909 24.9212C114.164 24.8412 115.428 24.8845 116.913 24.8845Z" fill="white"/>
<path d="M47.3284 60.3293C46.3556 60.6958 45.9293 60.3181 45.6459 59.4136C45.0958 57.6574 44.4321 55.9369 43.6516 54.2126C43.6516 56.2402 43.6516 58.2681 43.6516 60.3688C43.0071 60.3688 42.4791 60.3688 41.8613 60.3688C41.8613 57.1886 41.8613 54.0007 41.8613 50.8254C44.1388 50.3901 44.2037 50.4309 44.9084 52.4572C45.4559 54.0323 46.0184 55.6021 46.665 57.4305C47.2961 55.6476 47.8561 54.0894 48.399 52.525C49.1047 50.4925 49.0988 50.4905 51.4674 50.7637C51.4674 53.9401 51.4674 57.1318 51.4674 60.3841C50.9607 60.3841 50.422 60.3841 49.778 60.3841C49.778 58.3402 49.778 56.2802 49.778 54.2203C49.7054 54.206 49.6326 54.192 49.5598 54.1777C48.8123 56.2395 48.0644 58.3012 47.3284 60.3293Z" fill="white"/>
<path d="M11.622 60.4021C10.9815 60.4021 10.4419 60.4021 9.82129 60.4021C9.82129 57.2206 9.82129 54.0628 9.82129 50.7799C10.3635 50.7799 10.9146 50.7799 11.6133 50.7799C11.6133 52.0155 11.6133 53.2254 11.6133 54.5125C13.0527 54.5125 14.3499 54.5125 15.827 54.5125C15.827 53.3123 15.827 52.0718 15.827 50.7471C16.5675 50.7471 17.1296 50.7471 17.7634 50.7471C17.7634 53.9935 17.7634 57.1503 17.7634 60.3789C17.1436 60.3789 16.5759 60.3789 15.8665 60.3789C15.8665 59.0407 15.8665 57.748 15.8665 56.313C14.5572 56.313 13.382 56.2666 12.2169 56.3542C11.9979 56.3708 11.6722 56.9104 11.649 57.2272C11.5757 58.2362 11.622 59.2541 11.622 60.4021Z" fill="white"/>
<path d="M211.981 60.4377C211.981 57.1503 211.981 53.99 211.981 50.5989C213.58 50.69 215.158 50.6007 216.655 50.9063C219.082 51.4016 220.454 53.4684 220.225 55.8681C219.957 58.6676 218.306 60.3051 215.563 60.4291C214.421 60.4808 213.275 60.4377 211.981 60.4377ZM213.805 58.8688C215.418 58.9324 216.979 58.9485 217.86 57.3945C218.59 56.1065 218.528 54.7061 217.691 53.4485C217.014 52.4302 215.317 52.0606 213.805 52.5058C213.805 54.5973 213.805 56.6912 213.805 58.8688Z" fill="white"/>
<path d="M33.451 56.3689C33.451 58.0041 33.451 59.1378 33.451 60.3577C32.8515 60.3577 32.3262 60.3577 31.7056 60.3577C31.7056 57.208 31.7056 54.0186 31.7056 50.7951C33.2952 50.7951 34.8568 50.6746 36.3898 50.8318C37.7148 50.9675 38.5623 52.0312 38.735 53.3073C38.9033 54.5529 38.2359 55.5575 36.5584 56.499C37.4179 57.7336 38.273 58.9619 39.2591 60.3778C38.0115 60.4542 36.9554 60.7562 36.3009 59.3757C35.9431 58.6211 35.4089 57.9346 34.8677 57.2898C34.5932 56.9625 34.1277 56.7957 33.451 56.3689ZM33.4686 55.0597C34.6538 55.0449 35.84 55.3966 36.5762 54.2924C36.7988 53.9585 36.7947 53.1566 36.5475 52.8843C35.7012 51.9528 34.5685 52.2882 33.4686 52.3979C33.4686 53.2875 33.4686 54.0851 33.4686 55.0597Z" fill="white"/>
<path d="M90.2124 50.7236C90.9651 50.7236 91.502 50.7236 92.3044 50.7236C92.186 53.2794 92.2178 55.7736 91.9069 58.2244C91.6874 59.9536 89.685 60.903 87.4528 60.6794C85.5897 60.493 84.1708 59.2039 84.113 57.4645C84.0399 55.2694 84.0954 53.0701 84.0954 50.7685C84.6923 50.7685 85.208 50.7685 85.8885 50.7685C85.8885 52.6774 85.8612 54.5721 85.8986 56.4652C85.9213 57.6092 86.1581 58.6643 87.5397 58.9553C89.0771 59.2795 90.1604 58.5125 90.2001 56.9389C90.2511 54.9149 90.2124 52.8888 90.2124 50.7236Z" fill="white"/>
<path d="M76.7513 56.301C76.7513 57.2481 76.7513 57.9975 76.7513 58.8812C78.2561 58.8812 79.7189 58.8812 81.2425 58.8812C81.2425 59.4532 81.2425 59.8915 81.2425 60.3799C79.0827 60.3799 76.9843 60.3799 74.8232 60.3799C74.8232 57.1554 74.8232 53.9968 74.8232 50.7417C76.9043 50.7417 78.9111 50.7417 80.9853 50.7417C80.9853 51.2531 80.9853 51.6967 80.9853 52.2875C79.5765 52.2875 78.1993 52.2875 76.7686 52.2875C76.7686 53.0938 76.7686 53.7536 76.7686 54.593C77.7557 54.593 78.7219 54.5298 79.6707 54.6296C79.9743 54.6617 80.381 55.0809 80.4788 55.4025C80.6642 56.0127 80.326 56.3313 79.6524 56.3089C78.7267 56.2778 77.7995 56.301 76.7513 56.301Z" fill="white"/>
<path d="M29.2411 60.2857C27.8652 60.7754 27.0574 60.385 26.8055 59.0091C26.6703 58.2705 26.2692 57.9311 25.4879 58.0164C24.987 58.0709 24.47 58.063 23.9683 58.009C23.1493 57.9206 22.6385 58.2973 22.531 59.0508C22.3247 60.4999 21.4467 60.6483 20.1079 60.3221C20.8189 58.444 21.5187 56.5824 22.2287 54.7244C22.6642 53.585 23.0656 52.4281 23.5902 51.3308C23.7409 51.0155 24.263 50.718 24.6236 50.7076C24.9936 50.6969 25.5951 50.9569 25.7161 51.2533C26.9354 54.2451 28.0771 57.2692 29.2411 60.2857ZM25.7838 56.3351C25.4128 55.3157 25.086 54.4178 24.6763 53.2919C24.2783 54.4394 23.9645 55.344 23.621 56.3351C24.4275 56.3351 25.0147 56.3351 25.7838 56.3351Z" fill="white"/>
<path d="M127.475 60.3057C126.076 60.7348 125.246 60.403 125.023 58.9927C124.905 58.2493 124.449 57.9368 123.686 58.0058C123.182 58.0514 122.666 58.0446 122.163 57.9959C121.41 57.9233 120.918 58.2047 120.798 58.9557C120.569 60.379 119.718 60.7106 118.314 60.3187C119.239 57.9025 120.164 55.4816 121.093 53.0623C121.319 52.4733 121.48 51.8384 121.818 51.3202C122.025 51.0016 122.497 50.7286 122.877 50.6879C123.2 50.6532 123.768 50.8964 123.876 51.1603C125.113 54.1905 126.284 57.2477 127.475 60.3057ZM121.83 56.3004C122.618 56.3004 123.236 56.3004 123.978 56.3004C123.62 55.3054 123.298 54.409 122.891 53.278C122.486 54.4332 122.17 55.3344 121.83 56.3004Z" fill="white"/>
<path d="M53.9263 60.327C55.1273 57.1954 56.2539 54.2021 57.4477 51.2356C57.5621 50.9516 58.0992 50.6766 58.433 50.6845C58.8227 50.6939 59.4346 50.9259 59.5546 51.2216C60.7726 54.2223 61.9097 57.2558 63.0727 60.2883C61.7289 60.721 60.8729 60.4612 60.6364 59.004C60.5215 58.2971 60.096 57.9118 59.3078 58.004C58.8476 58.0577 58.3711 58.0564 57.9105 58.0037C57.0637 57.9065 56.4869 58.2014 56.3649 59.0659C56.1584 60.5318 55.2357 60.6189 53.9263 60.327ZM59.6119 56.3375C59.2416 55.3097 58.9118 54.3939 58.5056 53.266C58.1086 54.4242 57.7936 55.343 57.4526 56.3375C58.2362 56.3375 58.825 56.3375 59.6119 56.3375Z" fill="white"/>
<path d="M144.611 52.42C143.508 52.3054 142.504 52.0836 141.521 52.1539C141.101 52.1839 140.376 52.8598 140.41 53.1769C140.46 53.6572 140.973 54.2113 141.436 54.4922C141.951 54.8047 142.644 54.8054 143.235 55.0135C144.73 55.5401 145.27 56.3056 145.216 57.7218C145.167 58.9964 144.385 60.1462 143.09 60.3942C141.998 60.6036 140.844 60.5351 139.719 60.5101C138.437 60.4818 138.032 59.7892 138.334 58.9103C139.653 58.9103 140.867 59.0086 142.049 58.8579C142.472 58.8039 143.076 58.1759 143.121 57.7577C143.16 57.4043 142.575 56.8738 142.15 56.6087C141.705 56.3316 141.122 56.2746 140.598 56.1266C138.999 55.6748 138.323 54.889 138.344 53.5026C138.365 52.0767 139.399 50.7487 140.817 50.5594C141.681 50.4443 142.582 50.5727 143.464 50.6353C144.648 50.7199 144.958 51.3866 144.611 52.42Z" fill="white"/>
<path d="M1.85728 56.7358C1.85728 57.4557 1.85728 58.047 1.85728 58.6386C1.85728 59.1846 1.85728 59.7306 1.85728 60.3599C1.27232 60.3599 0.749758 60.3599 0.146973 60.3599C0.146973 57.1702 0.146973 53.9788 0.146973 50.779C1.6724 50.779 3.15377 50.6565 4.60509 50.8121C6.17151 50.9802 6.98567 52.1361 6.95282 53.7364C6.92149 55.2661 5.86872 56.3624 4.13345 56.6013C3.43033 56.6983 2.71269 56.6889 1.85728 56.7358ZM1.90847 55.057C3.10844 55.0545 4.30408 55.3644 4.92622 54.128C5.08996 53.8028 5.04463 53.159 4.82079 52.8906C4.02828 51.9407 2.94749 52.3161 1.90847 52.3767C1.90847 53.2894 1.90847 54.1143 1.90847 55.057Z" fill="white"/>
<path d="M158.961 56.739C158.961 57.994 158.961 59.1621 158.961 60.3835C158.319 60.3835 157.794 60.3835 157.198 60.3835C157.198 57.1788 157.198 54.024 157.198 50.5762C158.858 50.6954 160.501 50.6597 162.075 50.9701C163.598 51.2704 164.183 52.3927 164.059 54.0268C163.96 55.3376 162.8 56.4051 161.192 56.6104C160.524 56.6954 159.846 56.6911 158.961 56.739ZM159.034 51.9885C159.034 53.2631 159.034 54.1274 159.034 55.0712C160.134 55.0429 161.272 55.3725 161.948 54.2604C162.146 53.9359 162.144 53.0897 161.984 53.0148C161.098 52.6 160.136 52.3496 159.034 51.9885Z" fill="white"/>
<path d="M170.429 57.8183C171.212 55.6412 171.953 53.8117 172.519 51.93C172.912 50.6269 173.664 50.4351 174.927 50.824C174.239 52.6458 173.558 54.4438 172.879 56.2424C172.462 57.3454 172.02 58.4394 171.645 59.5564C171.428 60.2032 171.117 60.4772 170.379 60.4759C169.676 60.4749 169.449 60.18 169.236 59.604C168.152 56.6858 167.032 53.7816 165.917 50.852C167.25 50.3541 167.971 50.702 168.372 52.0094C168.938 53.8547 169.654 55.6542 170.429 57.8183Z" fill="white"/>
<path d="M72.0104 52.2166C67.8179 52.3024 66.8079 52.9612 66.788 55.572C66.7674 58.2989 67.4497 58.7408 72.0687 58.9516C72.0687 59.3937 72.0687 59.8391 72.0687 60.2672C68.8034 61.3735 65.9036 60.2718 65.0986 57.6172C64.0267 54.0827 65.9777 50.0914 70.5071 50.4816C71.945 50.6059 72.0603 50.6611 72.0104 52.2166Z" fill="white"/>
<path d="M116.412 58.9119C116.412 59.4261 116.412 59.845 116.412 60.2535C113.148 61.4061 110.194 60.2879 109.497 57.4537C108.482 53.3213 110.603 50.0194 115.309 50.5101C116.383 50.6222 116.473 50.7925 116.348 52.3075C114.79 52.0246 113.081 51.6485 111.999 53.178C111.476 53.9175 111.13 54.97 111.151 55.87C111.212 58.3794 112.293 58.9542 116.412 58.9119Z" fill="white"/>
<path d="M99.4157 60.4042C98.6568 60.4042 98.1144 60.4042 97.4291 60.4042C97.4291 57.7239 97.4291 55.0797 97.4291 52.324C96.3778 52.324 95.4643 52.324 94.5886 52.324C94.1151 50.8146 94.2165 50.6593 95.6049 50.6562C97.8345 50.6517 100.064 50.655 102.357 50.655C102.357 51.2588 102.357 51.697 102.357 52.2484C101.38 52.2484 100.466 52.2484 99.4159 52.2484C99.4157 54.9959 99.4157 57.6358 99.4157 60.4042Z" fill="white"/>
<path d="M181.147 52.2593C181.147 55.0616 181.147 57.6711 181.147 60.3664C180.524 60.3664 180.002 60.3664 179.348 60.3664C179.348 57.7118 179.348 55.0662 179.348 52.2809C178.275 52.2809 177.325 52.2809 176.324 52.2809C176.324 51.7275 176.324 51.316 176.324 50.7764C178.893 50.7764 181.477 50.7764 184.126 50.7764C184.126 51.2689 184.126 51.712 184.126 52.2593C183.168 52.2593 182.25 52.2593 181.147 52.2593Z" fill="white"/>
<path d="M204.81 52.2926C203.706 52.2926 202.821 52.2926 201.837 52.2926C201.837 51.7608 201.837 51.2879 201.837 50.7361C204.409 50.7361 206.963 50.7361 209.578 50.7361C209.578 51.2645 209.578 51.7084 209.578 52.2518C208.614 52.2518 207.698 52.2518 206.647 52.2518C206.647 54.9902 206.647 57.6351 206.647 60.3618C205.995 60.3618 205.471 60.3618 204.81 60.3618C204.81 57.735 204.81 55.089 204.81 52.2926Z" fill="white"/>
<path d="M129.793 50.7471C130.43 50.7471 130.992 50.7471 131.688 50.7471C131.688 53.4814 131.688 56.1309 131.688 58.9095C133.194 58.9095 134.572 58.9095 135.996 58.9095C135.996 59.4535 135.996 59.8665 135.996 60.3636C133.965 60.3636 131.914 60.3636 129.793 60.3636C129.793 57.1567 129.793 53.9999 129.793 50.7471Z" fill="white"/>
<path d="M195.684 50.7371C196.296 50.7371 196.787 50.7371 197.397 50.7371C197.397 53.4655 197.397 56.112 197.397 58.8776C198.889 58.8776 200.267 58.8776 201.731 58.8776C201.731 59.432 201.731 59.8664 201.731 60.3722C199.729 60.3722 197.757 60.3722 195.684 60.3722C195.684 57.1785 195.684 53.9942 195.684 50.7371Z" fill="white"/>
<path d="M106.432 60.382C105.829 60.382 105.299 60.382 104.723 60.382C104.723 57.161 104.723 54.0022 104.723 50.752C105.303 50.752 105.825 50.752 106.432 50.752C106.432 53.9398 106.432 57.0992 106.432 60.382Z" fill="white"/>
<path d="M222.667 60.3417C222.667 59.6969 222.667 59.1555 222.667 58.5056C223.305 58.5056 223.904 58.5056 224.583 58.5056C224.583 59.0913 224.583 59.6979 224.583 60.3417C223.926 60.3417 223.291 60.3417 222.667 60.3417Z" fill="white"/>
</svg>
