<svg width="20" height="20" viewBox="0 0 20 20" fill="none" xmlns="http://www.w3.org/2000/svg">
<path d="M10 20C15.5228 20 20 15.5228 20 10C20 4.47715 15.5228 0 10 0C4.47715 0 0 4.47715 0 10C0 15.5228 4.47715 20 10 20Z" fill="#59AFD9"/>
<path d="M14.9804 6.97371C14.7441 7.32877 14.4552 7.64597 14.1238 7.9145C14.0821 7.94932 14.0486 7.99301 14.0258 8.0424C14.003 8.0918 13.9916 8.14564 13.9923 8.20003V8.23292C13.9884 8.946 13.8574 9.65268 13.6054 10.3198C13.3458 11.0199 12.96 11.6666 12.4673 12.2277C11.8051 12.9815 10.9533 13.5444 10.0002 13.8579C9.37388 14.0612 8.71911 14.1629 8.06068 14.1592C7.01612 14.1591 5.99019 13.8826 5.087 13.3579C5.05463 13.3395 5.02916 13.3111 5.01443 13.2769C4.99971 13.2427 4.99654 13.2046 5.00542 13.1684C5.01453 13.1329 5.03528 13.1014 5.06437 13.0789C5.09346 13.0565 5.12922 13.0445 5.16595 13.0448H5.41595C6.20976 13.0467 6.98601 12.8112 7.64489 12.3684C7.25223 12.3049 6.88474 12.1341 6.58292 11.875C6.28111 11.6159 6.05668 11.2785 5.93437 10.9C5.9281 10.8811 5.92697 10.8608 5.93107 10.8413C5.93518 10.8217 5.94438 10.8036 5.95774 10.7888C5.9711 10.774 5.98815 10.7629 6.00715 10.7568C6.02616 10.7507 6.04644 10.7497 6.06595 10.754C6.18569 10.7765 6.30726 10.788 6.4291 10.7882H6.47516C6.09565 10.6138 5.77477 10.3333 5.55131 9.98046C5.32785 9.62764 5.21136 9.21764 5.21595 8.80002C5.21608 8.78048 5.22127 8.76131 5.23102 8.74437C5.24077 8.72744 5.25473 8.71331 5.27156 8.70337C5.28839 8.69344 5.3075 8.68803 5.32704 8.68767C5.34658 8.68731 5.36587 8.69202 5.38305 8.70134C5.53741 8.78752 5.70304 8.85174 5.87516 8.89213C5.53496 8.55555 5.31614 8.11555 5.25303 7.64117C5.18993 7.1668 5.2861 6.68489 5.52647 6.27108C5.53557 6.25518 5.54838 6.24173 5.56382 6.23188C5.57925 6.22203 5.59685 6.21608 5.61509 6.21452C5.63334 6.21297 5.65169 6.21587 5.66857 6.22297C5.68545 6.23007 5.70035 6.24116 5.712 6.25529C6.18724 6.84371 6.77581 7.3307 7.4428 7.68736C8.1098 8.04403 8.84163 8.26311 9.59489 8.3316H9.60542C9.61649 8.33128 9.62737 8.32871 9.63741 8.32405C9.64746 8.31939 9.65644 8.31273 9.66383 8.30448C9.67121 8.29623 9.67684 8.28657 9.68038 8.27608C9.68391 8.26558 9.68526 8.25448 9.68437 8.24345C9.65499 7.97938 9.67191 7.71222 9.73437 7.45397C9.81926 7.10294 9.99353 6.77984 10.2402 6.51607C10.4869 6.25231 10.7977 6.05686 11.1423 5.94871C11.3633 5.87965 11.5935 5.84417 11.8252 5.84345C12.3503 5.84284 12.8576 6.03424 13.2515 6.3816C13.3025 6.42725 13.3685 6.45254 13.437 6.45266C13.4592 6.45218 13.4813 6.44909 13.5028 6.44345C13.8729 6.34993 14.2274 6.20323 14.5554 6.00792C14.575 5.99581 14.5979 5.99007 14.621 5.99148C14.644 5.99288 14.666 6.00137 14.684 6.01577C14.702 6.03018 14.7151 6.0498 14.7216 6.07195C14.728 6.0941 14.7274 6.11769 14.7199 6.1395C14.6104 6.48395 14.4153 6.79498 14.1528 7.04345C14.3893 6.98707 14.62 6.90911 14.8423 6.81055C14.8642 6.80208 14.8882 6.80066 14.911 6.80647C14.9338 6.81229 14.9542 6.82505 14.9694 6.84299C14.9846 6.86093 14.9938 6.88316 14.9958 6.90659C14.9978 6.93001 14.9924 6.95347 14.9804 6.97371Z" fill="white"/>
</svg>
